# Blender v2.81 (sub 16) OBJ File: 'block.blend'
# www.blender.org
mtllib mesh.mtl
o Cube.001_Cube
v -0.500000 -0.500000 0.500000
v -0.500000 0.500000 0.500000
v -0.500000 -0.500000 -0.500000
v -0.500000 0.500000 -0.500000
v 0.500000 -0.500000 0.500000
v 0.500000 0.500000 0.500000
v 0.500000 -0.500000 -0.500000
v 0.500000 0.500000 -0.500000
vt 1.000000 0.333333
vt 1.000000 0.666667
vt -0.000000 0.666667
vt -0.000000 0.333333
vt 1.000000 0.333333
vt 1.000000 0.666667
vt -0.000000 0.666667
vt -0.000000 0.333333
vt 1.000000 0.333333
vt 1.000000 0.666667
vt 0.000000 0.666667
vt 0.000000 0.333333
vt 1.000000 0.333333
vt 1.000000 0.666667
vt 0.000000 0.666667
vt 0.000000 0.333333
vt 0.000058 0.000058
vt 0.999942 0.000058
vt 0.999942 0.333353
vt 0.000058 0.333353
vt 1.000000 1.000000
vt -0.000000 1.000000
vn -1.0000 0.0000 0.0000
vn 0.0000 0.0000 -1.0000
vn 1.0000 0.0000 0.0000
vn 0.0000 0.0000 1.0000
vn 0.0000 -1.0000 0.0000
vn 0.0000 1.0000 0.0000
usemtl Material
s off
f 1/1/1 2/2/1 4/3/1 3/4/1
f 3/5/2 4/6/2 8/7/2 7/8/2
f 7/9/3 8/10/3 6/11/3 5/12/3
f 5/13/4 6/14/4 2/15/4 1/16/4
f 3/17/5 7/18/5 5/19/5 1/20/5
f 8/7/6 4/6/6 2/21/6 6/22/6
